<svg width="16" height="16" viewBox="0 0 16 16" fill="none" xmlns="http://www.w3.org/2000/svg">
<g clip-path="url(#clip0_540_804)">
<path d="M11.7424 10.3437C12.7107 9.02244 13.1444 7.38431 12.9567 5.75703C12.769 4.12975 11.9739 2.63334 10.7303 1.56717C9.48665 0.501002 7.88635 -0.0562938 6.2495 0.00677695C4.61264 0.0698477 3.05997 0.748634 1.90209 1.90734C0.744221 3.06604 0.0665458 4.6192 0.00464636 6.2561C-0.0572531 7.89299 0.501188 9.4929 1.56825 10.7357C2.6353 11.9786 4.13228 12.7727 5.7597 12.9592C7.38711 13.1457 9.02493 12.7109 10.3455 11.7417H10.3445C10.3745 11.7817 10.4065 11.8196 10.4425 11.8566L14.2924 15.7065C14.4799 15.8941 14.7342 15.9996 14.9995 15.9997C15.2647 15.9998 15.5192 15.8945 15.7068 15.707C15.8944 15.5195 15.9999 15.2651 16 14.9999C16.0001 14.7346 15.8948 14.4802 15.7073 14.2926L11.8574 10.4427C11.8217 10.4065 11.7833 10.3731 11.7424 10.3427V10.3437ZM12.0004 6.49985C12.0004 7.2221 11.8582 7.93727 11.5818 8.60453C11.3054 9.2718 10.9003 9.87809 10.3896 10.3888C9.87889 10.8995 9.27259 11.3046 8.60533 11.581C7.93806 11.8574 7.22289 11.9996 6.50065 11.9996C5.77841 11.9996 5.06324 11.8574 4.39597 11.581C3.72871 11.3046 3.12241 10.8995 2.61171 10.3888C2.10101 9.87809 1.6959 9.2718 1.41951 8.60453C1.14312 7.93727 1.00086 7.2221 1.00086 6.49985C1.00086 5.04122 1.5803 3.64232 2.61171 2.61091C3.64312 1.5795 5.04201 1.00006 6.50065 1.00006C7.95928 1.00006 9.35818 1.5795 10.3896 2.61091C11.421 3.64232 12.0004 5.04122 12.0004 6.49985Z" fill="#23A6F0"/>
</g>
<defs>
<clipPath id="clip0_540_804">
<rect width="16.0006" height="16.0003" fill="white"/>
</clipPath>
</defs>
</svg>
