<svg width="16" height="16" viewBox="0 0 16 16" fill="none" xmlns="http://www.w3.org/2000/svg">
<path d="M7.99969 0C5.82878 0 5.55579 0.00999962 4.70282 0.0479982C3.84985 0.0879966 3.26888 0.221992 2.75989 0.419984C2.22601 0.620795 1.74243 0.935791 1.34295 1.34295C0.93604 1.74263 0.621084 2.22615 0.419984 2.75989C0.221992 3.26788 0.0869967 3.84985 0.0479982 4.69982C0.00999962 5.55479 0 5.82678 0 8.0007C0 10.1726 0.00999962 10.4446 0.0479982 11.2976C0.0879966 12.1495 0.221992 12.7305 0.419984 13.2395C0.624976 13.7655 0.897966 14.2115 1.34295 14.6564C1.78693 15.1014 2.23291 15.3754 2.75889 15.5794C3.26888 15.7774 3.84885 15.9124 4.70082 15.9514C5.55479 15.9894 5.82678 15.9994 7.99969 15.9994C10.1726 15.9994 10.4436 15.9894 11.2976 15.9514C12.1485 15.9114 12.7315 15.7774 13.2405 15.5794C13.774 15.3785 14.2573 15.0635 14.6564 14.6564C15.1014 14.2115 15.3744 13.7655 15.5794 13.2395C15.7764 12.7305 15.9114 12.1495 15.9514 11.2976C15.9894 10.4446 15.9994 10.1726 15.9994 7.99969C15.9994 5.82678 15.9894 5.55479 15.9514 4.70082C15.9114 3.84985 15.7764 3.26788 15.5794 2.75989C15.3783 2.22614 15.0634 1.74261 14.6564 1.34295C14.2571 0.93564 13.7735 0.620622 13.2395 0.419984C12.7295 0.221992 12.1475 0.0869967 11.2966 0.0479982C10.4426 0.00999962 10.1716 0 7.9977 0H8.0007H7.99969ZM7.28272 1.44195H8.0007C10.1366 1.44195 10.3896 1.44894 11.2326 1.48794C12.0125 1.52294 12.4365 1.65394 12.7185 1.76293C13.0915 1.90793 13.3585 2.08192 13.6385 2.36191C13.9185 2.6419 14.0915 2.90789 14.2365 3.28187C14.3465 3.56286 14.4764 3.98685 14.5114 4.76682C14.5504 5.60979 14.5584 5.86278 14.5584 7.9977C14.5584 10.1326 14.5504 10.3866 14.5114 11.2296C14.4764 12.0095 14.3455 12.4325 14.2365 12.7145C14.1082 13.0619 13.9035 13.3759 13.6375 13.6335C13.3575 13.9135 13.0915 14.0865 12.7175 14.2315C12.4375 14.3415 12.0135 14.4714 11.2326 14.5074C10.3896 14.5454 10.1366 14.5544 8.0007 14.5544C5.86478 14.5544 5.61079 14.5454 4.76782 14.5074C3.98785 14.4714 3.56486 14.3415 3.28287 14.2315C2.93539 14.1034 2.62103 13.899 2.36291 13.6335C2.09667 13.3755 1.89165 13.0612 1.76293 12.7135C1.65394 12.4325 1.52294 12.0085 1.48794 11.2286C1.44994 10.3856 1.44195 10.1326 1.44195 7.99569C1.44195 5.85978 1.44994 5.60779 1.48794 4.76482C1.52394 3.98485 1.65394 3.56086 1.76393 3.27887C1.90893 2.90589 2.08292 2.6389 2.36291 2.35891C2.6429 2.07892 2.90889 1.90593 3.28287 1.76093C3.56486 1.65094 3.98785 1.52094 4.76782 1.48494C5.50579 1.45094 5.79178 1.44095 7.28272 1.43995V1.44195ZM12.2705 2.76989C12.1445 2.76989 12.0196 2.79472 11.9032 2.84297C11.7867 2.89121 11.6809 2.96192 11.5917 3.05106C11.5026 3.1402 11.4319 3.24603 11.3836 3.3625C11.3354 3.47896 11.3106 3.60379 11.3106 3.72986C11.3106 3.85592 11.3354 3.98075 11.3836 4.09722C11.4319 4.21369 11.5026 4.31951 11.5917 4.40865C11.6809 4.4978 11.7867 4.56851 11.9032 4.61675C12.0196 4.66499 12.1445 4.68982 12.2705 4.68982C12.5251 4.68982 12.7693 4.58868 12.9493 4.40865C13.1294 4.22863 13.2305 3.98446 13.2305 3.72986C13.2305 3.47526 13.1294 3.23109 12.9493 3.05106C12.7693 2.87103 12.5251 2.76989 12.2705 2.76989ZM8.0007 3.89185C7.45579 3.88335 6.91463 3.98333 6.40873 4.18598C5.90284 4.38863 5.44231 4.68989 5.05396 5.07223C4.66561 5.45457 4.3572 5.91034 4.14668 6.41302C3.93617 6.91569 3.82775 7.45522 3.82775 8.00019C3.82775 8.54517 3.93617 9.0847 4.14668 9.58737C4.3572 10.09 4.66561 10.5458 5.05396 10.9282C5.44231 11.3105 5.90284 11.6118 6.40873 11.8144C6.91463 12.0171 7.45579 12.117 8.0007 12.1085C9.07919 12.0917 10.1078 11.6515 10.8646 10.8828C11.6213 10.1142 12.0454 9.07883 12.0454 8.00019C12.0454 6.92156 11.6213 5.88619 10.8646 5.11755C10.1078 4.34892 9.07919 3.90868 8.0007 3.89185ZM8.0007 5.3328C8.708 5.3328 9.38634 5.61377 9.88648 6.11391C10.3866 6.61405 10.6676 7.29239 10.6676 7.99969C10.6676 8.707 10.3866 9.38534 9.88648 9.88548C9.38634 10.3856 8.708 10.6666 8.0007 10.6666C7.29339 10.6666 6.61505 10.3856 6.11491 9.88548C5.61477 9.38534 5.3338 8.707 5.3338 7.99969C5.3338 7.29239 5.61477 6.61405 6.11491 6.11391C6.61505 5.61377 7.29339 5.3328 8.0007 5.3328Z" fill="white"/>
</svg>
