<svg width="23" height="23" viewBox="0 0 23 23" fill="none" xmlns="http://www.w3.org/2000/svg">
<path d="M21.0327 8.7965C20.9725 8.61908 20.8616 8.46318 20.7138 8.34806C20.566 8.23293 20.3877 8.16361 20.2009 8.14867L14.7374 7.71454L12.3732 2.4811C12.2979 2.31254 12.1755 2.16937 12.0206 2.06888C11.8658 1.96838 11.6851 1.91486 11.5005 1.91475C11.3159 1.91465 11.1352 1.96798 10.9802 2.06831C10.8253 2.16863 10.7026 2.31166 10.6272 2.48014L8.26296 7.71454L2.79951 8.14867C2.61595 8.16321 2.44046 8.23033 2.29405 8.34199C2.14763 8.45366 2.03648 8.60514 1.97391 8.77832C1.91133 8.9515 1.89996 9.13904 1.94118 9.3185C1.9824 9.49797 2.07444 9.66176 2.20631 9.79029L6.24376 13.7262L4.81584 19.9093C4.77249 20.0965 4.78638 20.2923 4.85573 20.4715C4.92507 20.6507 5.04667 20.8049 5.20474 20.9141C5.3628 21.0233 5.55004 21.0824 5.74215 21.0839C5.93426 21.0854 6.12238 21.029 6.28209 20.9223L11.5002 17.4435L16.7183 20.9223C16.8816 21.0306 17.0741 21.0864 17.27 21.0821C17.4659 21.0778 17.6557 21.0137 17.8141 20.8982C17.9724 20.7828 18.0916 20.6216 18.1556 20.4365C18.2196 20.2513 18.2254 20.0509 18.1721 19.8623L16.4193 13.729L20.7663 9.81712C21.0509 9.56029 21.1554 9.1597 21.0327 8.7965Z" fill="#F3CD03"/>
</svg>
