<svg width="23" height="23" viewBox="0 0 23 23" fill="none" xmlns="http://www.w3.org/2000/svg">
<path d="M6.24511 13.7263L4.8172 19.9095C4.77298 20.0967 4.78626 20.2929 4.85529 20.4725C4.92432 20.652 5.0459 20.8066 5.20414 20.916C5.36239 21.0254 5.54995 21.0845 5.74233 21.0857C5.9347 21.0868 6.12295 21.0299 6.28249 20.9224L11.5006 17.4437L16.7187 20.9224C16.8819 21.0308 17.0745 21.0866 17.2704 21.0823C17.4663 21.078 17.6561 21.0138 17.8145 20.8984C17.9728 20.783 18.092 20.6218 18.156 20.4366C18.22 20.2514 18.2258 20.0511 18.1725 19.8625L16.4197 13.7292L20.7667 9.81728C20.9059 9.69192 21.0054 9.5285 21.0527 9.34723C21.1 9.16596 21.0932 8.97479 21.033 8.79737C20.9729 8.61994 20.862 8.46404 20.7142 8.34895C20.5664 8.23385 20.388 8.16461 20.2013 8.14978L14.7378 7.7147L12.3736 2.48125C12.2983 2.31274 12.1757 2.16964 12.0208 2.06923C11.8659 1.96882 11.6852 1.91539 11.5006 1.91539C11.316 1.91539 11.1353 1.96882 10.9804 2.06923C10.8255 2.16964 10.7029 2.31274 10.6276 2.48125L8.26336 7.7147L2.79991 8.14882C2.61635 8.16337 2.44086 8.23048 2.29444 8.34215C2.14803 8.45381 2.03688 8.6053 1.9743 8.77848C1.91172 8.95165 1.90036 9.1392 1.94158 9.31866C1.98279 9.49813 2.07484 9.66192 2.2067 9.79044L6.24511 13.7263ZM8.97923 9.58057C9.15029 9.56709 9.31457 9.50785 9.45485 9.40904C9.59514 9.31024 9.70626 9.17551 9.77656 9.01899L11.5006 5.20387L13.2246 9.01899C13.2949 9.17551 13.4061 9.31024 13.5463 9.40904C13.6866 9.50785 13.8509 9.56709 14.022 9.58057L17.8285 9.88244L14.6938 12.7038C14.4216 12.9491 14.3133 13.3267 14.413 13.6794L15.6138 17.8816L12.0334 15.4944C11.8763 15.389 11.6913 15.3326 11.502 15.3326C11.3128 15.3326 11.1278 15.389 10.9706 15.4944L7.22932 17.989L8.23557 13.6324C8.27246 13.4722 8.26751 13.3051 8.22119 13.1474C8.17486 12.9896 8.08873 12.8464 7.97107 12.7316L5.05966 9.89299L8.97923 9.58057Z" fill="#F3CD03"/>
</svg>
