<svg width="16" height="16" viewBox="0 0 16 16" fill="none" xmlns="http://www.w3.org/2000/svg">
<g clip-path="url(#clip0_540_703)">
<path d="M3.65436 1.32825C3.59533 1.25232 3.52081 1.18981 3.43577 1.14488C3.35072 1.09996 3.25709 1.07364 3.16109 1.06768C3.0651 1.06173 2.96893 1.07626 2.87898 1.11033C2.78903 1.14439 2.70736 1.1972 2.63939 1.26526L1.60542 2.30022C1.12244 2.78421 0.944442 3.46919 1.15544 4.07017C2.03115 6.55768 3.45566 8.81612 5.32331 10.678C7.18518 12.5456 9.44361 13.9701 11.9311 14.8458C12.5321 15.0568 13.2171 14.8788 13.7011 14.3959L14.735 13.3619C14.8031 13.2939 14.8559 13.2122 14.89 13.1223C14.924 13.0323 14.9386 12.9362 14.9326 12.8402C14.9266 12.7442 14.9003 12.6506 14.8554 12.5655C14.8105 12.4805 14.748 12.4059 14.672 12.3469L12.3651 10.553C12.284 10.4901 12.1896 10.4464 12.0891 10.4252C11.9887 10.4041 11.8847 10.4061 11.7851 10.431L9.59518 10.978C9.30287 11.051 8.99662 11.0471 8.70625 10.9667C8.41588 10.8863 8.15129 10.732 7.93823 10.519L5.4823 8.06205C5.26908 7.84909 5.11464 7.58455 5.03403 7.29417C4.95342 7.0038 4.94938 6.6975 5.02232 6.4051L5.5703 4.21517C5.59521 4.11557 5.59717 4.01161 5.57604 3.91114C5.5549 3.81067 5.51123 3.71631 5.4483 3.63518L3.65436 1.32825ZM1.88441 0.511279C2.0594 0.336234 2.26963 0.200419 2.50113 0.112853C2.73264 0.0252863 2.98012 -0.0120279 3.22715 0.00338793C3.47419 0.0188037 3.71511 0.0865968 3.93393 0.202266C4.15275 0.317934 4.34446 0.478832 4.49633 0.674274L6.29028 2.9802C6.61927 3.40319 6.73527 3.95417 6.60527 4.47416L6.05829 6.66409C6.03001 6.77752 6.03153 6.89633 6.06272 7.00899C6.09391 7.12165 6.1537 7.22434 6.23628 7.30707L8.69321 9.764C8.77604 9.84675 8.87889 9.90664 8.99175 9.93783C9.1046 9.96902 9.22361 9.97046 9.33719 9.94199L11.5261 9.39501C11.7827 9.33085 12.0506 9.32587 12.3094 9.38043C12.5682 9.435 12.8112 9.5477 13.0201 9.71L15.326 11.5039C16.155 12.1489 16.231 13.3739 15.489 14.1149L14.455 15.1488C13.7151 15.8888 12.6091 16.2138 11.5781 15.8508C8.93938 14.9224 6.54354 13.4117 4.56833 11.4309C2.58768 9.45602 1.07705 7.06054 0.148466 4.42216C-0.213523 3.39219 0.111468 2.28523 0.851445 1.54525L1.88541 0.511279H1.88441Z" fill="white"/>
</g>
<defs>
<clipPath id="clip0_540_703">
<rect width="16.0005" height="16.0004" fill="white"/>
</clipPath>
</defs>
</svg>
