<svg width="16" height="16" viewBox="0 0 16 16" fill="none" xmlns="http://www.w3.org/2000/svg">
<path d="M7.99933 14.6667C4.70378 14.6232 2.04277 11.9622 1.99933 8.66668C2.04277 5.37113 4.70378 2.71011 7.99933 2.66668C11.2949 2.71011 13.9559 5.37113 13.9993 8.66668C13.9559 11.9622 11.2949 14.6232 7.99933 14.6667ZM7.99933 4.00001C5.43611 4.03376 3.36641 6.10346 3.33266 8.66668C3.36641 11.2299 5.43611 13.2996 7.99933 13.3333C10.5625 13.2996 12.6322 11.2299 12.666 8.66668C12.6322 6.10346 10.5625 4.03376 7.99933 4.00001ZM11.3327 9.33334H7.33266V5.33334H8.66599V8.00001H11.3327V9.33334ZM13.5273 4.47201L11.5213 2.47201L12.4607 1.52734L14.4673 3.52734L13.5273 4.47134V4.47201ZM2.47066 4.47201L1.52733 3.52734L3.52133 1.52734L4.46466 2.47201L2.472 4.47201H2.47066Z" fill="#23A6F0"/>
</svg>
